%TF.GenerationSoftware,KiCad,Pcbnew,7.0.11*%
%TF.CreationDate,2026-07-26T14:17:27+01:00*%
%TF.ProjectId,Servor Motor Tester,53657276-6f72-4204-9d6f-746f72205465,rev?*%
%TF.SameCoordinates,Original*%
%TF.FileFunction,Copper,L1,Top*%
%TF.FilePolarity,Positive*%
%FSLAX46Y46*%
G04 Gerber Fmt 4.6, Leading zero omitted, Abs format (unit mm)*
G04 Created by KiCad (PCBNEW 7.0.11) date 2026-07-26 14:17:27*
%MOMM*%
%LPD*%
G01*
G04 APERTURE LIST*
%TA.AperFunction,ComponentPad*%
%ADD10R,1.600000X1.600000*%
%TD*%
%TA.AperFunction,ComponentPad*%
%ADD11O,1.600000X1.600000*%
%TD*%
%TA.AperFunction,ComponentPad*%
%ADD12R,3.000000X3.000000*%
%TD*%
%TA.AperFunction,ComponentPad*%
%ADD13C,3.000000*%
%TD*%
%TA.AperFunction,ComponentPad*%
%ADD14C,1.400000*%
%TD*%
%TA.AperFunction,ComponentPad*%
%ADD15O,1.400000X1.400000*%
%TD*%
%TA.AperFunction,ComponentPad*%
%ADD16R,1.700000X1.700000*%
%TD*%
%TA.AperFunction,ComponentPad*%
%ADD17O,1.700000X1.700000*%
%TD*%
%TA.AperFunction,ComponentPad*%
%ADD18R,1.800000X1.800000*%
%TD*%
%TA.AperFunction,ComponentPad*%
%ADD19C,1.800000*%
%TD*%
%TA.AperFunction,ComponentPad*%
%ADD20C,1.600000*%
%TD*%
%TA.AperFunction,Conductor*%
%ADD21C,0.500000*%
%TD*%
G04 APERTURE END LIST*
D10*
%TO.P,U1,1,GND*%
%TO.N,GND*%
X141980000Y-94650000D03*
D11*
%TO.P,U1,2,TR*%
%TO.N,Net-(D1-K)*%
X141980000Y-97190000D03*
%TO.P,U1,3,Q*%
%TO.N,/SIG*%
X141980000Y-99730000D03*
%TO.P,U1,4,R*%
%TO.N,/VCC*%
X141980000Y-102270000D03*
%TO.P,U1,5,CV*%
%TO.N,unconnected-(U1-CV-Pad5)*%
X149600000Y-102270000D03*
%TO.P,U1,6,THR*%
%TO.N,Net-(D1-K)*%
X149600000Y-99730000D03*
%TO.P,U1,7,DIS*%
%TO.N,Net-(D1-A)*%
X149600000Y-97190000D03*
%TO.P,U1,8,VCC*%
%TO.N,/VCC*%
X149600000Y-94650000D03*
%TD*%
D12*
%TO.P,RV1,1,1*%
%TO.N,Net-(R2-Pad1)*%
X152260000Y-85290000D03*
D13*
%TO.P,RV1,2,2*%
%TO.N,Net-(D1-A)*%
X147260000Y-85290000D03*
%TO.P,RV1,3,3*%
X142260000Y-85290000D03*
%TD*%
D14*
%TO.P,R3,1*%
%TO.N,/VCC*%
X135890000Y-83690000D03*
D15*
%TO.P,R3,2*%
%TO.N,Net-(D2-A)*%
X135890000Y-91310000D03*
%TD*%
D14*
%TO.P,R2,1*%
%TO.N,Net-(R2-Pad1)*%
X152890000Y-94150000D03*
D15*
%TO.P,R2,2*%
%TO.N,/VCC*%
X160510000Y-94150000D03*
%TD*%
D14*
%TO.P,R1,1*%
%TO.N,Net-(D1-A)*%
X142050000Y-106850000D03*
D15*
%TO.P,R1,2*%
%TO.N,Net-(D1-K)*%
X149670000Y-106850000D03*
%TD*%
D16*
%TO.P,J2,1,Pin_1*%
%TO.N,GND*%
X160510000Y-97030000D03*
D17*
%TO.P,J2,2,Pin_2*%
%TO.N,/VCC*%
X160510000Y-99570000D03*
%TO.P,J2,3,Pin_3*%
%TO.N,/SIG*%
X160510000Y-102110000D03*
%TD*%
D16*
%TO.P,J1,1,Pin_1*%
%TO.N,/VCC*%
X131395000Y-91615000D03*
D17*
%TO.P,J1,2,Pin_2*%
%TO.N,GND*%
X131395000Y-89075000D03*
%TD*%
D18*
%TO.P,D2,1,K*%
%TO.N,GND*%
X132410000Y-100295000D03*
D19*
%TO.P,D2,2,A*%
%TO.N,Net-(D2-A)*%
X132410000Y-97755000D03*
%TD*%
D10*
%TO.P,D1,1,K*%
%TO.N,Net-(D1-K)*%
X137360000Y-99210000D03*
D11*
%TO.P,D1,2,A*%
%TO.N,Net-(D1-A)*%
X137360000Y-106830000D03*
%TD*%
D20*
%TO.P,C1,1*%
%TO.N,Net-(D1-K)*%
X154650000Y-106860000D03*
%TO.P,C1,2*%
%TO.N,GND*%
X154650000Y-101860000D03*
%TD*%
D21*
%TO.N,/VCC*%
X135890000Y-87120000D02*
X131395000Y-91615000D01*
X135890000Y-83690000D02*
X135890000Y-87120000D01*
X159210001Y-95449999D02*
X150399999Y-95449999D01*
X150399999Y-95449999D02*
X149600000Y-94650000D01*
X160510000Y-94150000D02*
X159210001Y-95449999D01*
%TO.N,Net-(D1-K)*%
X144520000Y-99730000D02*
X141980000Y-97190000D01*
X149600000Y-99730000D02*
X144520000Y-99730000D01*
%TO.N,/SIG*%
X159100000Y-103520000D02*
X145770000Y-103520000D01*
X145770000Y-103520000D02*
X141980000Y-99730000D01*
X160510000Y-102110000D02*
X159100000Y-103520000D01*
%TD*%
M02*
